HIERARCHY
ROOT Hips
{
	OFFSET 49.218899 -6.070168 50.588501
	CHANNELS 6 Xposition Yposition Zposition Xrotation Yrotation Zrotation
	JOINT spine
	{
		OFFSET 0.000000 -0.507025 8.817051
		CHANNELS 3 Xrotation Yrotation Zrotation
		JOINT spine1
		{
			OFFSET 0.000000 -0.000002 10.776600
			CHANNELS 3 Xrotation Yrotation Zrotation
			JOINT spine2
			{
				OFFSET 0.000000 -0.000002 10.325897
				CHANNELS 3 Xrotation Yrotation Zrotation
				JOINT Neck
				{
					OFFSET 0.000000 -1.263954 26.511002
					CHANNELS 3 Xrotation Yrotation Zrotation
					JOINT Head
					{
						OFFSET 0.000000 -0.000001 8.009659
						CHANNELS 3 Xrotation Yrotation Zrotation
						End Site
						{
							OFFSET 0.000000 6.393857 19.387901
						}
					}
				}
				JOINT RightShoulder
				{
					OFFSET -4.347950 0.605421 11.151199
					CHANNELS 3 Xrotation Yrotation Zrotation
					JOINT RightArm
					{
						OFFSET 0.000000 -0.000002 14.625801
						CHANNELS 3 Xrotation Yrotation Zrotation
						JOINT RightArmRoll
						{
							OFFSET 0.000000 -0.000001 7.383400
							CHANNELS 3 Xrotation Yrotation Zrotation
							JOINT RightForeArm
							{
								OFFSET 0.000000 -0.000003 21.505196
								CHANNELS 3 Xrotation Yrotation Zrotation
								JOINT RightForeArmRoll
								{
									OFFSET 0.000000 -0.000001 8.285324
									CHANNELS 3 Xrotation Yrotation Zrotation
									JOINT RightHand
									{
										OFFSET 0.000000 -0.000003 16.626801
										CHANNELS 3 Xrotation Yrotation Zrotation
										End Site
										{
											OFFSET 0.000000 0.000000 0.100006
										}
									}
								}
							}
						}
					}
				}
				JOINT LeftShoulder
				{
					OFFSET 4.347950 0.605421 11.151199
					CHANNELS 3 Xrotation Yrotation Zrotation
					JOINT LeftArm
					{
						OFFSET 0.000000 -0.000002 14.625801
						CHANNELS 3 Xrotation Yrotation Zrotation
						JOINT LeftArmRoll
						{
							OFFSET 0.000000 -0.000001 7.383400
							CHANNELS 3 Xrotation Yrotation Zrotation
							JOINT LeftForeArm
							{
								OFFSET 0.000000 -0.000003 21.505196
								CHANNELS 3 Xrotation Yrotation Zrotation
								JOINT LeftForeArmRoll
								{
									OFFSET 0.000000 -0.000001 8.285324
									CHANNELS 3 Xrotation Yrotation Zrotation
									JOINT LeftHand
									{
										OFFSET 0.000000 -0.000003 16.626801
										CHANNELS 3 Xrotation Yrotation Zrotation
										End Site
										{
											OFFSET 0.000000 0.000000 0.100006
										}
									}
								}
							}
						}
					}
				}
			}
		}
	}
	JOINT RightUpLeg
	{
		OFFSET -7.815102 1.202170 -1.433090
		CHANNELS 3 Xrotation Yrotation Zrotation
		JOINT RightUpLegRoll
		{
			OFFSET 0.000000 -0.000003 19.495895
			CHANNELS 3 Xrotation Yrotation Zrotation
			JOINT RightLeg
			{
				OFFSET 0.000000 0.000004 -24.142700
				CHANNELS 3 Xrotation Yrotation Zrotation
				JOINT RightLegRoll
				{
					OFFSET 0.000000 -0.000004 24.221703
					CHANNELS 3 Xrotation Yrotation Zrotation
					JOINT RightFoot
					{
						OFFSET 0.000000 -0.000003 20.160500
						CHANNELS 3 Xrotation Yrotation Zrotation
						JOINT RightToeBase
						{
							OFFSET 0.000000 -0.000003 16.853203
							CHANNELS 3 Xrotation Yrotation Zrotation
							End Site
							{
								OFFSET 0.007145 0.940778 8.161873
							}
						}
					}
				}
			}
		}
	}
	JOINT LeftUpLeg
	{
		OFFSET 7.815102 1.202170 -1.433090
		CHANNELS 3 Xrotation Yrotation Zrotation
		JOINT LeftUpLegRoll
		{
			OFFSET 0.000000 -0.000003 19.496002
			CHANNELS 3 Xrotation Yrotation Zrotation
			JOINT LeftLeg
			{
				OFFSET 0.000000 -0.000004 24.142601
				CHANNELS 3 Xrotation Yrotation Zrotation
				JOINT LeftLegRoll
				{
					OFFSET 0.000000 -0.000004 24.445602
					CHANNELS 3 Xrotation Yrotation Zrotation
					JOINT LeftFoot
					{
						OFFSET 0.000000 -0.000003 19.936592
						CHANNELS 3 Xrotation Yrotation Zrotation
						JOINT LeftToeBase
						{
							OFFSET 0.000000 -0.000003 16.853195
							CHANNELS 3 Xrotation Yrotation Zrotation
							End Site
							{
								OFFSET -0.032013 0.940779 8.161865
							}
						}
					}
				}
			}
		}
	}
}
MOTION
Frames: 13
Frame Time: 0.041667
48.594498 -9.582788 51.110504 17.910680 -0.524140 1.359527 2.137330 -0.457841 0.189741 8.279315 -0.905741 0.400652 9.924474 -0.900881 0.411475 37.235111 3.890765 2.777418 14.835415 10.363074 1.085160 -0.331983 -43.497520 1.604508 -49.052291 -113.146271 -89.284629 0.000000 0.000004 0.000003 87.878785 4.831570 -6.818995 0.000005 -0.000017 -3.007291 -5.000198 -7.998782 0.000170 -7.833136 60.239195 9.368211 -51.533521 119.987094 71.785015 -0.000000 0.000003 0.000001 80.930707 0.320160 2.926673 0.000000 -0.000007 2.999999 -5.000225 7.998732 -0.000178 -114.137707 -164.974367 2.006143 -179.999991 0.000005 -1.165006 73.503122 -0.019096 -0.844003 -0.000004 -0.000005 2.089060 75.801132 8.096810 -2.191118 25.456945 -7.347078 -0.001180 -113.180797 169.178622 -3.501242 -0.000005 -0.000004 -1.118060 -107.785310 -2.507862 -1.979464 -0.000001 0.000002 -2.217009 76.992228 -6.799038 -1.759920 25.483338 7.350854 -0.004155 
48.589397 -9.534926 51.036800 17.711895 -0.532540 1.299303 2.147268 -0.456691 0.188772 8.299161 -0.903449 0.398745 9.944321 -0.898611 0.409539 37.322493 3.878721 2.816924 14.751757 10.482713 1.103861 -0.255616 -43.671512 1.675045 -49.670970 -113.155075 -89.858071 0.000000 0.000004 0.000002 87.866648 4.765259 -6.769813 0.000005 -0.000013 -3.007289 -5.000197 -7.998780 0.000171 -7.861210 60.315201 9.406309 -51.738287 119.991356 71.894448 0.000000 0.000004 0.000001 80.874965 0.362956 2.893975 -0.000003 -0.000009 3.000001 -5.000224 7.998731 -0.000179 -114.008555 -165.061261 2.041715 -179.999991 0.000007 -1.168996 73.480029 0.024909 -0.792399 -0.000004 -0.000006 2.090081 75.750432 8.093570 -2.170581 25.456948 -7.347078 -0.001179 -113.068700 169.137081 -3.487740 -0.000006 -0.000004 -1.120850 -107.835901 -2.537529 -2.014259 0.000000 0.000002 -2.217750 76.942887 -6.797441 -1.769806 25.500405 7.350865 -0.006333 
48.599598 -9.481857 51.010105 17.501692 -0.537300 1.232724 2.160379 -0.455790 0.188118 8.325368 -0.901628 0.397499 9.970533 -0.896805 0.408273 37.414485 3.864236 2.859384 14.663170 10.614285 1.122911 -0.172807 -43.861470 1.751270 -50.339894 -113.166126 -90.474229 -0.000001 0.000003 0.000002 87.853971 4.693450 -6.716842 0.000006 -0.000016 -3.007290 -5.000195 -7.998779 0.000170 -7.897949 60.402443 9.455193 -51.968201 119.992162 72.023641 0.000000 0.000003 0.000001 80.823076 0.407543 2.861295 -0.000001 -0.000008 2.999998 -5.000222 7.998734 -0.000179 -113.859998 -165.154944 2.087666 -179.999991 0.000005 -1.172999 73.461949 0.070400 -0.740123 -0.000004 -0.000005 2.091530 75.701056 8.090313 -2.150145 25.456947 -7.347077 -0.001180 -112.942458 169.088669 -3.472526 -0.000005 -0.000004 -1.123910 -107.885379 -2.570627 -2.051588 -0.000001 0.000002 -2.218909 76.893798 -6.795610 -1.780246 25.520102 7.350858 -0.008840 
48.572495 -9.434858 50.983601 17.281885 -0.538739 1.160792 2.176258 -0.455158 0.187759 8.357119 -0.900319 0.396880 10.002240 -0.895504 0.407638 37.510388 3.847947 2.904234 14.570470 10.755347 1.142448 -0.084461 -44.065471 1.832389 -51.054428 -113.179684 -91.129374 -0.000000 0.000004 0.000000 87.840051 4.616704 -6.660221 0.000003 -0.000014 -3.007292 -5.000200 -7.998781 0.000173 -7.941344 60.499965 9.512496 -52.217018 119.991684 72.165962 -0.000001 0.000004 0.000004 80.774056 0.453731 2.828480 -0.000000 -0.000007 3.000001 -5.000222 7.998731 -0.000182 -113.694332 -165.254515 2.139922 -179.999991 0.000004 -1.177997 73.448808 0.117088 -0.687478 -0.000004 -0.000005 2.093310 75.652903 8.086881 -2.129717 25.456943 -7.347077 -0.001179 -112.803723 169.034491 -3.455397 -0.000005 -0.000004 -1.127190 -107.933477 -2.606824 -2.091397 -0.000002 0.000002 -2.220419 76.844887 -6.793568 -1.791356 25.541923 7.350867 -0.011641 
48.622295 -9.410357 50.957203 17.054074 -0.537194 1.084485 2.194488 -0.454813 0.187680 8.393587 -0.899564 0.396851 10.038736 -0.894749 0.407600 37.609747 3.830476 2.950876 14.474655 10.903442 1.162555 0.008513 -44.281100 1.917594 -51.805933 -113.197005 -91.815521 0.000001 0.000005 -0.000000 87.824184 4.535480 -6.599622 0.000001 -0.000016 -3.007289 -5.000201 -7.998780 0.000172 -7.989379 60.606632 9.575790 -52.485066 119.988843 72.322756 0.000000 0.000003 0.000003 80.726627 0.501376 2.795346 -0.000003 -0.000009 2.999999 -5.000222 7.998730 -0.000178 -113.513905 -165.359221 2.198097 -179.999991 0.000006 -1.182997 73.440304 0.164629 -0.634763 -0.000004 -0.000005 2.095341 75.605632 8.083306 -2.108978 25.456948 -7.347077 -0.001180 -112.653964 168.975615 -3.437142 -0.000005 -0.000004 -1.130649 -107.979745 -2.645742 -2.131639 -0.000002 0.000002 -2.222179 76.796024 -6.791321 -1.803032 25.565769 7.350862 -0.014704 
48.602596 -9.367876 50.921303 16.820147 -0.533021 1.004795 2.214661 -0.454776 0.187863 8.433927 -0.899404 0.397373 10.079041 -0.894582 0.408121 37.711978 3.812457 2.998701 14.376828 11.056291 1.183206 0.105182 -44.506257 2.006046 -52.584165 -113.220009 -92.522719 0.000003 0.000005 -0.000001 87.805770 4.450130 -6.535633 0.000003 -0.000013 -3.007290 -5.000202 -7.998782 0.000169 -8.040073 60.721379 9.642713 -52.767210 119.985018 72.488791 0.000000 0.000004 0.000002 80.679595 0.550320 2.761730 -0.000003 -0.000008 3.000002 -5.000219 7.998731 -0.000178 -113.320959 -165.467985 2.261328 -179.999991 0.000006 -1.188994 73.436541 0.212677 -0.582281 -0.000004 -0.000005 2.097500 75.558995 8.079510 -2.087914 25.456947 -7.347078 -0.001180 -112.494711 168.913256 -3.418410 -0.000005 -0.000004 -1.134250 -108.023820 -2.686109 -2.174087 -0.000002 0.000002 -2.224097 76.747093 -6.788890 -1.815293 25.591223 7.350865 -0.017972 
48.623695 -9.338568 50.891304 16.581823 -0.526597 0.922701 2.236364 -0.455066 0.188291 8.477338 -0.899880 0.398414 10.122442 -0.895045 0.409166 37.816729 3.794492 3.047123 14.278096 11.211516 1.204420 0.204611 -44.738716 2.096872 -53.382436 -113.249181 -93.244896 0.000001 0.000004 0.000001 87.784050 4.361180 -6.467911 0.000005 -0.000015 -3.007289 -5.000202 -7.998780 0.000170 -8.091297 60.843045 9.710739 -53.061277 119.980469 72.662346 0.000000 0.000004 0.000002 80.631947 0.600399 2.727475 -0.000001 -0.000006 3.000002 -5.000221 7.998730 -0.000180 -113.117884 -165.580055 2.327374 -179.999991 0.000005 -1.193994 73.437306 0.260941 -0.530332 -0.000005 -0.000004 2.099711 75.512639 8.075526 -2.066295 25.456947 -7.347077 -0.001181 -112.327474 168.848451 -3.397975 -0.000005 -0.000004 -1.137930 -108.065259 -2.728152 -2.216780 0.000000 0.000002 -2.226120 76.698100 -6.786198 -1.828320 25.618093 7.350862 -0.021432 
48.595196 -9.285190 50.875500 16.340789 -0.518326 0.839173 2.259182 -0.455702 0.188947 8.522966 -0.901031 0.399934 10.168158 -0.896178 0.410702 37.923416 3.777201 3.095530 14.179351 11.366548 1.226227 0.305803 -44.976393 2.189159 -54.193596 -113.284712 -93.975705 0.000003 0.000004 0.000000 87.758314 4.269214 -6.396631 0.000003 -0.000014 -3.007289 -5.000197 -7.998782 0.000171 -8.140947 60.970544 9.777367 -53.364883 119.975278 72.841263 -0.000001 0.000004 0.000003 80.582408 0.651469 2.692421 -0.000002 -0.000011 2.999999 -5.000224 7.998732 -0.000179 -112.906859 -165.694406 2.394278 -179.999991 0.000005 -1.200004 73.442511 0.309065 -0.479234 -0.000005 -0.000005 2.101869 75.466268 8.071245 -2.043718 25.456941 -7.347080 -0.001178 -112.153905 168.782335 -3.377301 -0.000005 -0.000004 -1.141670 -108.103692 -2.770898 -2.259531 -0.000001 0.000002 -2.228130 76.648916 -6.783268 -1.842033 25.646071 7.350857 -0.025019 
48.618595 -9.248538 50.848896 16.098754 -0.508637 0.755178 2.282694 -0.456703 0.189816 8.570018 -0.902901 0.401900 10.215169 -0.898023 0.412689 38.031467 3.761188 3.143299 14.081599 11.519198 1.248545 0.407756 -45.217075 2.281943 -55.010863 -113.326724 -94.708947 0.000000 0.000004 0.000001 87.727885 4.174584 -6.321776 0.000002 -0.000017 -3.007292 -5.000203 -7.998782 0.000170 -8.186942 61.102872 9.840112 -53.672788 119.970715 73.020296 -0.000001 0.000004 0.000001 80.529850 0.703379 2.656423 -0.000002 -0.000009 3.000000 -5.000223 7.998731 -0.000179 -112.690328 -165.810150 2.460809 -179.999991 0.000005 -1.205004 73.452148 0.356714 -0.429270 -0.000004 -0.000005 2.103880 75.419680 8.066655 -2.020066 25.456945 -7.347077 -0.001179 -111.975453 168.716136 -3.355708 -0.000005 -0.000005 -1.145410 -108.138779 -2.813955 -2.301278 0.000000 0.000003 -2.230070 76.599431 -6.780100 -1.856532 25.674765 7.350852 -0.028698 
48.592297 -9.206549 50.842602 15.857515 -0.497983 0.671670 2.306494 -0.458091 0.190879 8.617639 -0.905527 0.404276 10.262785 -0.900621 0.415096 38.140323 3.747052 3.189820 13.985952 11.667071 1.271278 0.509434 -45.458669 2.374240 -55.821685 -113.376899 -95.431949 0.000001 0.000004 0.000000 87.692157 4.077674 -6.243627 0.000003 -0.000013 -3.007290 -5.000202 -7.998780 0.000172 -8.227058 61.238889 9.896324 -53.985634 119.965770 73.200954 0.000000 0.000003 0.000004 80.473077 0.755981 2.619326 -0.000002 -0.000006 3.000002 -5.000221 7.998734 -0.000179 -112.470519 -165.926277 2.526140 -179.999991 0.000006 -1.210004 73.466095 0.403569 -0.380747 -0.000004 -0.000005 2.105659 75.372688 8.061659 -1.995346 25.456945 -7.347081 -0.001178 -111.793593 168.650908 -3.334570 -0.000005 -0.000004 -1.149119 -108.170150 -2.856291 -2.343841 -0.000001 0.000002 -2.231830 76.549448 -6.776729 -1.871836 25.703962 7.350843 -0.032425 
48.591595 -9.164329 50.815201 15.618781 -0.486846 0.589597 2.330176 -0.459881 0.192118 8.665001 -0.908952 0.407026 10.310203 -0.904014 0.417887 38.249698 3.735381 3.234454 13.893295 11.807681 1.294395 0.609746 -45.698876 2.464993 -56.623016 -113.433835 -96.142528 0.000001 0.000003 0.000001 87.650301 3.979086 -6.161962 0.000002 -0.000014 -3.007289 -5.000204 -7.998783 0.000171 -8.259061 61.377630 9.943373 -54.297941 119.961440 73.377665 -0.000001 0.000004 0.000002 80.410970 0.809133 2.580966 0.000001 -0.000007 3.000000 -5.000217 7.998734 -0.000177 -112.249610 -166.041748 2.588399 -179.999991 0.000005 -1.216001 73.484250 0.449284 -0.333979 -0.000005 -0.000005 2.107089 75.324829 8.056256 -1.969116 25.456945 -7.347077 -0.001180 -111.610038 168.587852 -3.312910 -0.000005 -0.000005 -1.152739 -108.197184 -2.898097 -2.383223 -0.000001 0.000002 -2.233350 76.499054 -6.773108 -1.887730 25.733451 7.350841 -0.036195 
48.559998 -9.116838 50.819702 15.384345 -0.475728 0.509893 2.353320 -0.462097 0.193519 8.711309 -0.913218 0.410115 10.356523 -0.908242 0.421026 38.358838 3.726763 3.276597 13.804720 11.938623 1.317736 0.707605 -45.935713 2.553099 -57.402337 -113.498701 -96.828177 -0.000001 0.000003 0.000001 87.601657 3.879239 -6.077068 0.000005 -0.000014 -3.007289 -5.000206 -7.998778 0.000173 -8.280664 61.517916 9.978546 -54.606188 119.958530 73.547047 -0.000002 0.000004 0.000002 80.342299 0.862710 2.541242 -0.000002 -0.000009 3.000000 -5.000222 7.998735 -0.000179 -112.029944 -166.155635 2.646488 -179.999991 0.000005 -1.220003 73.506591 0.493538 -0.289253 -0.000005 -0.000005 2.108101 75.275884 8.050411 -1.941271 25.456943 -7.347076 -0.001180 -111.426203 168.528088 -3.291734 -0.000005 -0.000005 -1.156249 -108.219669 -2.938037 -2.422221 -0.000000 0.000002 -2.234529 76.448026 -6.769254 -1.904533 25.762847 7.350831 -0.039930 
48.570698 -9.086516 50.795506 15.155906 -0.465160 0.433486 2.375499 -0.464757 0.195064 8.755707 -0.918367 0.413506 10.400838 -0.913349 0.424478 38.467246 3.721781 3.315591 13.721338 12.057587 1.341131 0.801851 -46.166895 2.637423 -58.156786 -113.569756 -97.486832 0.000002 0.000003 0.000002 87.545588 3.778470 -5.989023 0.000006 -0.000015 -3.007290 -5.000199 -7.998782 0.000171 -8.289563 61.658788 9.999108 -54.907819 119.956864 73.706900 -0.000003 0.000004 0.000001 80.265856 0.916581 2.499990 -0.000000 -0.000008 2.999997 -5.000221 7.998730 -0.000180 -111.813680 -166.266844 2.699540 -179.999991 0.000004 -1.225003 73.532997 0.535969 -0.246878 -0.000004 -0.000005 2.108571 75.225661 8.044003 -1.911513 25.456945 -7.347077 -0.001179 -111.243571 168.472872 -3.269855 -0.000005 -0.000006 -1.159590 -108.237215 -2.976042 -2.458787 -0.000002 0.000003 -2.235290 76.396363 -6.765131 -1.922239 25.791844 7.350830 -0.043595 
